<svg xmlns="http://www.w3.org/2000/svg" viewBox="0 0 1440 900" preserveAspectRatio="xMidYMid slice">
  <defs>
    <linearGradient id="base" x1="0" y1="0" x2="1" y2="1">
      <stop offset="0" stop-color="#182b4c"/><stop offset="55%" stop-color="#101d35"/><stop offset="100%" stop-color="#0a1526"/>
    </linearGradient>
    <radialGradient id="glowA" cx="50%" cy="50%" r="50%">
      <stop offset="0" stop-color="#d8b45a" stop-opacity="0.55"/><stop offset="100%" stop-color="#d8b45a" stop-opacity="0"/>
    </radialGradient>
    <radialGradient id="glowB" cx="50%" cy="50%" r="50%">
      <stop offset="0" stop-color="#3a5c94" stop-opacity="0.5"/><stop offset="100%" stop-color="#3a5c94" stop-opacity="0"/>
    </radialGradient>
    <filter id="soft"><feGaussianBlur stdDeviation="26"/></filter>
  </defs>
  <rect width="1440" height="900" fill="url(#base)"/>
  <circle cx="120" cy="80" r="360" fill="url(#glowA)" filter="url(#soft)"/>
  <circle cx="1360" cy="880" r="420" fill="url(#glowA)" filter="url(#soft)" opacity="0.7"/>
  <circle cx="1200" cy="120" r="300" fill="url(#glowB)" filter="url(#soft)"/>
  <g fill="none" stroke="#c8a24a" stroke-opacity="0.16" stroke-width="1.4">
    <path d="M-40 260 C 300 120 620 300 980 170 S 1500 240 1520 120"/>
    <path d="M-40 320 C 320 200 640 360 1000 240 S 1500 320 1520 210"/>
    <path d="M-40 640 C 360 780 700 560 1040 700 S 1520 640 1520 760"/>
  </g>
  <g fill="#e8c86a" fill-opacity="0.28">
    <circle cx="240" cy="200" r="2.2"/><circle cx="520" cy="130" r="1.6"/><circle cx="880" cy="220" r="2"/>
    <circle cx="1120" cy="300" r="1.6"/><circle cx="360" cy="700" r="2"/><circle cx="980" cy="640" r="1.8"/>
    <circle cx="1300" cy="560" r="1.6"/><circle cx="700" cy="780" r="2.2"/>
  </g>
</svg>
